<?xml version="1.0" encoding="UTF-8" standalone="no" ?>
<!DOCTYPE svg PUBLIC "-//W3C//DTD SVG 1.1//EN" "http://www.w3.org/Graphics/SVG/1.1/DTD/svg11.dtd">
<svg xmlns="http://www.w3.org/2000/svg" xmlns:xlink="http://www.w3.org/1999/xlink" version="1.1" width="1080" height="1080" viewBox="0 0 1080 1080" xml:space="preserve">
<desc>Created with Fabric.js 5.2.4</desc>
<defs>
</defs>
<g transform="matrix(1 0 0 1 540 540)" id="6f62d80d-d445-42c1-a148-cb42b8f0c3bc"  >
</g>
<g transform="matrix(1 0 0 1 540 540)" id="be546bcc-5bbf-4fed-bbcd-b5d8c0458cbe"  >
<rect style="stroke: none; stroke-width: 1; stroke-dasharray: none; stroke-linecap: butt; stroke-dashoffset: 0; stroke-linejoin: miter; stroke-miterlimit: 4; fill: rgb(255,255,255); fill-rule: nonzero; opacity: 1; visibility: hidden;" vector-effect="non-scaling-stroke"  x="-540" y="-540" rx="0" ry="0" width="1080" height="1080" />
</g>
<g transform="matrix(2.83 0 0 2.83 538.67 553.67)"  >
<path style="stroke: none; stroke-width: 1; stroke-dasharray: none; stroke-linecap: butt; stroke-dashoffset: 0; stroke-linejoin: miter; stroke-miterlimit: 4; fill: rgb(255,255,255); fill-rule: evenodd; opacity: 1;" vector-effect="non-scaling-stroke"  transform=" translate(-196.11, -211.51)" d="M 10.09 69.017 C 8.702 69.193 8.408 69.914 9.391 70.729 C 9.72 71.003 9.99 71.447 9.99 71.717 C 9.99 71.987 10.514 72.932 11.155 73.817 C 11.796 74.701 12.703 76.122 13.171 76.973 C 13.968 78.426 16.729 82.619 19.583 86.713 C 21.187 89.014 24.627 94.225 26.174 96.696 C 26.833 97.75 27.687 99.082 28.072 99.656 C 28.457 100.23 29.086 101.169 29.471 101.743 C 29.855 102.317 30.709 103.647 31.369 104.699 C 32.028 105.752 33.636 108.204 34.941 110.149 C 36.247 112.095 38.537 115.574 40.031 117.882 C 41.525 120.19 43.11 122.617 43.554 123.277 C 46.795 128.09 50.241 133.365 50.47 133.866 C 50.621 134.196 51.372 135.365 52.139 136.464 C 56.27 142.384 63.607 153.585 63.958 154.507 C 64.139 154.98 64.466 155.478 64.685 155.613 C 65.058 155.844 67.633 159.639 69.364 162.508 C 69.785 163.207 70.96 165.005 71.975 166.504 C 72.991 168.004 74.047 169.68 74.323 170.23 C 74.599 170.779 75.2 171.64 75.657 172.142 C 76.115 172.644 76.947 173.85 77.506 174.821 C 78.064 175.791 79.4 177.898 80.475 179.502 C 87.25 189.615 90.31 194.266 90.31 194.449 C 90.31 194.564 90.804 195.303 91.409 196.091 C 92.013 196.878 92.957 198.296 93.506 199.242 C 94.056 200.188 95.386 202.274 96.463 203.877 C 97.539 205.481 98.996 207.692 99.7 208.791 C 101.589 211.739 101.901 212.208 104.196 215.546 C 105.35 217.224 106.294 218.711 106.294 218.85 C 106.294 218.989 106.836 219.839 107.499 220.74 C 108.162 221.641 109.984 224.356 111.547 226.773 C 113.111 229.191 115.401 232.646 116.636 234.452 C 117.871 236.258 119.241 238.36 119.68 239.122 C 120.12 239.884 121.487 242.003 122.718 243.83 C 123.949 245.658 126.23 249.131 127.788 251.548 C 129.345 253.966 131.055 256.484 131.587 257.143 C 132.12 257.802 132.875 258.971 133.267 259.74 C 133.658 260.509 134.358 261.611 134.821 262.187 C 135.285 262.764 136.024 263.829 136.464 264.554 C 138.44 267.814 142.679 274.298 145.464 278.322 C 145.92 278.981 147.088 280.779 148.059 282.318 C 149.031 283.856 150.2 285.654 150.657 286.314 C 151.114 286.973 152.283 288.771 153.254 290.31 C 154.94 292.979 155.418 293.699 157.636 296.903 C 158.168 297.672 159.092 299.111 159.688 300.1 C 160.284 301.089 161.081 302.258 161.458 302.697 C 161.836 303.137 162.445 304.036 162.812 304.695 C 163.507 305.942 165.144 308.478 168.265 313.146 C 169.273 314.652 170.441 316.452 170.863 317.146 C 171.284 317.839 172.572 319.776 173.726 321.449 C 174.88 323.122 175.824 324.605 175.824 324.744 C 175.824 324.883 176.37 325.734 177.036 326.634 C 179.102 329.424 180.154 331.007 181.048 332.667 C 181.521 333.546 182.231 334.625 182.625 335.065 C 183.019 335.504 183.853 336.702 184.478 337.725 C 185.103 338.749 186.5 340.906 187.582 342.52 C 188.664 344.134 190.885 347.478 192.517 349.95 C 196.487 355.963 196.499 355.961 201.142 348.905 C 202.969 346.128 206.536 340.709 209.067 336.863 C 211.598 333.017 214.151 329.1 214.74 328.158 C 215.329 327.217 216.165 326.093 216.597 325.661 C 217.029 325.229 217.383 324.679 217.383 324.439 C 217.383 323.989 220.036 319.982 221.709 317.905 C 222.23 317.258 222.82 316.298 223.02 315.772 C 223.219 315.247 224.286 313.528 225.39 311.954 C 226.493 310.379 228.729 307.023 230.358 304.496 C 231.987 301.968 233.876 299.091 234.555 298.102 C 235.235 297.113 236.639 294.944 237.675 293.283 C 238.712 291.621 240.055 289.674 240.659 288.956 C 241.264 288.238 241.758 287.49 241.758 287.293 C 241.758 286.979 244.043 283.463 251.58 272.18 C 252.661 270.561 253.891 268.673 254.312 267.985 C 254.733 267.296 255.902 265.508 256.91 264.01 C 257.917 262.512 259.281 260.419 259.94 259.36 C 261.212 257.317 265.528 250.76 266.924 248.751 C 267.382 248.092 268.547 246.294 269.512 244.755 C 270.478 243.217 271.679 241.434 272.182 240.794 C 272.684 240.154 273.8 238.446 274.661 236.998 C 275.523 235.55 276.633 233.916 277.129 233.367 C 277.625 232.817 278.348 231.738 278.737 230.969 C 279.125 230.2 280.408 228.161 281.588 226.438 C 282.768 224.715 284.024 222.737 284.38 222.042 C 284.736 221.348 285.457 220.24 285.983 219.58 C 286.508 218.921 288.168 216.494 289.672 214.186 C 291.175 211.878 293.283 208.663 294.355 207.04 C 295.427 205.418 296.484 203.815 296.703 203.478 C 296.923 203.141 298.407 200.905 300 198.511 C 301.593 196.116 302.897 194.05 302.897 193.921 C 302.897 193.791 303.443 192.948 304.109 192.047 C 304.776 191.146 306.116 189.151 307.087 187.612 C 308.057 186.074 309.223 184.276 309.678 183.616 C 310.132 182.957 311.847 180.35 313.487 177.822 C 315.128 175.295 316.968 172.512 317.576 171.638 C 318.184 170.765 319.527 168.717 320.561 167.088 C 321.595 165.459 322.809 163.735 323.259 163.256 C 323.708 162.778 324.076 162.23 324.076 162.04 C 324.076 161.571 327.205 156.686 328.301 155.445 C 328.786 154.895 329.563 153.726 330.028 152.847 C 330.492 151.968 331.208 150.799 331.619 150.25 C 332.029 149.7 333.527 147.453 334.947 145.255 C 337.174 141.808 340.803 136.303 342.586 133.666 C 342.883 133.227 343.913 131.608 344.875 130.07 C 345.836 128.531 346.953 126.823 347.356 126.274 C 347.759 125.724 349.421 123.207 351.05 120.679 C 352.679 118.152 354.391 115.544 354.855 114.885 C 355.933 113.352 360.402 106.566 361.405 104.939 C 361.826 104.255 362.995 102.474 364.003 100.98 C 365.01 99.486 366.291 97.47 366.85 96.499 C 367.409 95.528 368.263 94.311 368.748 93.795 C 369.233 93.278 369.63 92.739 369.63 92.596 C 369.63 92.453 370.664 90.779 371.928 88.876 C 373.192 86.974 374.585 84.845 375.025 84.146 C 375.802 82.909 377.875 79.748 380.908 75.171 C 383.919 70.629 384.134 69.414 382.002 68.988 C 379.355 68.458 278.649 68.694 278.215 69.231 C 277.993 69.505 277.688 70.814 277.538 72.14 C 277.065 76.306 272.251 75.898 323.388 76.019 C 365.212 76.117 368.047 76.168 368.701 76.821 C 369.968 78.089 368.741 81.103 364.429 87.313 C 363.971 87.972 362.799 89.77 361.823 91.309 C 360.848 92.847 359.486 94.915 358.798 95.904 C 357.26 98.112 353.863 103.299 352.248 105.906 C 351.588 106.969 350.169 109.155 349.093 110.763 C 348.018 112.371 346.129 115.194 344.897 117.038 C 343.665 118.881 342.208 121.139 341.658 122.057 C 341.109 122.974 340.332 124.163 339.931 124.699 C 339.046 125.884 329.769 139.894 328.725 141.623 C 328.315 142.302 326.856 144.565 325.483 146.653 C 324.109 148.741 321.71 152.428 320.151 154.845 C 318.591 157.263 316.769 159.978 316.1 160.878 C 315.432 161.779 314.885 162.63 314.885 162.769 C 314.885 162.908 313.941 164.395 312.787 166.073 C 310.492 169.41 310.18 169.879 308.291 172.827 C 307.587 173.926 306.13 176.148 305.054 177.765 C 303.978 179.382 302.457 181.72 301.676 182.96 C 300.894 184.2 299.815 185.863 299.278 186.655 C 297.403 189.42 294.725 193.508 288.174 203.596 C 286.605 206.014 284.858 208.621 284.292 209.391 C 283.726 210.16 282.384 212.208 281.31 213.941 C 280.236 215.674 279.027 217.473 278.623 217.937 C 278.219 218.401 277.577 219.411 277.197 220.18 C 276.497 221.595 275.545 223.035 273.34 226.013 C 272.673 226.914 272.128 227.75 272.128 227.872 C 272.128 228.083 267.104 235.847 265.34 238.362 C 264.878 239.021 263.167 241.628 261.538 244.156 C 259.91 246.683 258.201 249.291 257.742 249.95 C 256.917 251.133 255.106 253.901 253.546 256.363 C 252.233 258.436 250.243 261.459 249.35 262.737 C 248.889 263.397 247.722 265.195 246.756 266.733 C 245.79 268.272 244.656 269.98 244.236 270.529 C 243.816 271.079 243.195 272.068 242.856 272.728 C 242.517 273.388 241.862 274.27 241.4 274.688 C 240.937 275.106 240.559 275.604 240.559 275.794 C 240.559 275.984 240.065 276.885 239.461 277.796 C 237.723 280.413 236.851 281.776 235.564 283.881 C 234.905 284.959 233.871 286.421 233.267 287.129 C 232.662 287.838 232.168 288.561 232.168 288.737 C 232.168 288.913 231.134 290.571 229.87 292.423 C 228.606 294.275 227.229 296.355 226.81 297.046 C 226.183 298.078 223.898 301.557 221.978 304.402 C 221.758 304.727 220.823 306.185 219.9 307.642 C 218.977 309.098 217.849 310.829 217.394 311.489 C 216.939 312.148 215.227 314.755 213.588 317.283 C 211.95 319.81 210.054 322.687 209.374 323.676 C 205.722 328.996 203.725 332.062 202.822 333.738 C 202.267 334.766 201.627 335.723 201.399 335.864 C 201.17 336.005 200.546 336.984 200.011 338.04 C 198.964 340.107 198.445 340.46 196.447 340.46 C 194.76 340.46 194.235 340.005 192.066 336.663 C 191.067 335.125 189.926 333.42 189.53 332.874 C 189.135 332.328 187.963 330.53 186.926 328.878 C 185.89 327.226 184.481 325.065 183.797 324.076 C 183.113 323.087 181.221 320.21 179.592 317.682 C 177.964 315.155 176.315 312.64 175.928 312.095 C 175.541 311.549 174.38 309.751 173.348 308.099 C 172.316 306.447 170.943 304.376 170.296 303.497 C 169.649 302.617 168.361 300.639 167.434 299.101 C 166.507 297.562 165.436 295.944 165.054 295.504 C 164.673 295.065 163.487 293.267 162.42 291.508 C 161.352 289.75 160.148 287.862 159.744 287.313 C 159.341 286.763 157.782 284.426 156.279 282.118 C 150.38 273.054 144.625 264.278 143.834 263.137 C 143.019 261.962 142.48 261.136 140.06 257.349 C 137.619 253.529 134.706 249.099 133.486 247.353 C 132.225 245.547 128.765 240.326 127.273 237.978 C 126.833 237.286 125.664 235.496 124.675 234 C 123.686 232.504 122.158 230.158 121.279 228.786 C 117.562 222.989 115.394 219.669 111.98 214.545 C 107.83 208.315 107.373 207.621 105.297 204.396 C 102.411 199.912 96.868 191.442 95.882 190.01 C 95.429 189.351 92.705 185.215 89.831 180.819 C 82.849 170.145 78.558 163.621 77.081 161.439 C 75.716 159.42 70.508 151.369 69.425 149.602 C 69.037 148.969 67.688 146.904 66.428 145.014 C 65.167 143.123 63.202 140.156 62.061 138.42 C 60.92 136.685 59.431 134.456 58.751 133.467 C 58.072 132.478 56.668 130.317 55.631 128.665 C 54.594 127.013 53.426 125.214 53.034 124.669 C 52.643 124.123 50.986 121.608 49.352 119.081 C 47.718 116.553 45.829 113.676 45.155 112.687 C 43.726 110.59 36.536 99.593 34.313 96.104 C 33.472 94.785 32.264 92.987 31.628 92.108 C 30.992 91.229 29.695 89.251 28.746 87.712 C 27.797 86.174 26.619 84.423 26.129 83.822 C 23.979 81.188 23.199 77.195 24.691 76.46 C 25.067 76.275 45.461 76.034 70.01 75.924 C 104.088 75.772 114.76 75.61 115.127 75.242 C 115.814 74.556 115.612 70.286 114.858 69.531 C 114.287 68.961 14.393 68.471 10.09 69.017 M 156.755 69.248 C 156.048 69.513 155.024 70.36 154.481 71.129 C 153.596 72.383 149.965 77.663 143.629 86.913 C 142.424 88.671 140.901 90.829 140.244 91.708 C 139.587 92.587 138.099 94.745 136.938 96.503 C 135.776 98.262 133.771 101.227 132.48 103.093 C 129.098 107.983 129.071 108.129 129.071 121.665 C 129.071 136.027 128.495 134.791 135.332 135.087 C 143.881 135.456 143.575 134.993 143.771 147.85 C 143.951 159.635 143.371 158.641 150.077 158.641 C 155.127 158.641 155.458 158.691 156.521 159.605 L 157.642 160.569 L 157.853 167.497 C 158.119 176.238 156.439 173.809 173.015 189.411 C 176.635 192.817 180.813 196.758 182.3 198.168 C 185.531 201.233 188.085 202.993 189.304 202.995 C 189.795 202.996 190.784 203.522 191.502 204.163 L 192.807 205.328 L 193.007 220.379 C 193.197 234.693 193.245 235.458 193.982 235.997 C 194.631 236.47 198.518 236.563 217.615 236.563 C 238.79 236.563 240.534 236.615 241.326 237.263 C 242.377 238.122 242.572 240.629 241.669 241.655 C 241.328 242.042 240.584 243.289 240.013 244.427 C 239.443 245.566 238.79 246.612 238.563 246.752 C 238.336 246.892 237.785 247.724 237.338 248.599 C 236.844 249.569 235.8 250.652 234.668 251.369 L 232.811 252.547 L 192.606 252.547 C 149.102 252.547 150.712 252.466 151.259 254.644 C 151.494 255.579 154.914 261.077 158.654 266.533 C 159.332 267.522 161.214 270.4 162.835 272.927 C 169.35 283.08 166.333 282.113 191.508 282.116 C 211.207 282.118 211.396 282.126 212.233 282.962 C 213.234 283.963 213.092 285.814 211.878 287.59 C 210.672 289.354 208.866 292.116 207.992 293.531 C 207.552 294.243 205.754 296.923 203.996 299.487 C 202.238 302.05 200.341 304.895 199.781 305.808 C 199.015 307.057 198.425 307.537 197.396 307.747 C 195.19 308.198 194.576 307.719 191.558 303.184 C 189.769 300.495 189.743 300.476 188.284 300.74 C 186.36 301.088 184.774 301.908 184.464 302.715 C 183.714 304.669 183.818 304.873 191.255 316.009 C 192.329 317.616 193.584 319.557 194.046 320.324 C 196.446 324.312 196.27 324.484 207.453 307.293 C 208.954 304.985 210.496 302.647 210.88 302.098 C 212.498 299.779 216.441 293.891 217.142 292.747 C 218.718 290.175 220.777 287.084 221.427 286.314 C 221.798 285.874 222.598 284.615 223.204 283.516 C 223.81 282.418 224.996 280.582 225.839 279.438 C 229.614 274.314 230.829 274.535 198.886 274.53 L 173.396 274.525 L 171.827 273.027 C 169.782 271.073 165.035 263.178 165.035 261.73 C 165.035 259.941 164.888 259.949 202.276 259.74 L 238.118 259.54 L 239.485 258.215 C 240.237 257.486 241.093 256.407 241.387 255.817 C 241.681 255.228 243.029 253.037 244.383 250.949 C 245.737 248.861 247.831 245.624 249.036 243.756 C 250.242 241.888 251.75 239.566 252.387 238.596 C 255.494 233.87 256.911 231.525 256.926 231.083 C 256.969 229.858 255.139 229.77 229.497 229.769 C 203.807 229.767 203.585 229.76 202.198 228.919 C 200.151 227.678 200.213 228.069 200.206 216.244 L 200.2 205.316 L 201.441 204.156 C 202.123 203.519 202.914 202.997 203.198 202.997 C 204.232 202.997 208.389 200.52 209.773 199.08 C 212.898 195.828 232.395 177.381 233.205 176.91 C 234.296 176.275 234.965 172.635 234.965 167.34 C 234.965 159.251 235.404 158.759 242.797 158.573 C 249.925 158.394 249.351 159.304 249.351 148.19 C 249.351 135.343 249.306 135.417 257.143 135.15 C 260.359 135.041 262.234 134.799 262.837 134.417 L 263.736 133.848 L 263.734 121.769 C 263.731 107.554 263.328 105.864 258.684 100.647 C 258.365 100.288 257.168 98.555 256.025 96.796 C 254.882 95.036 252.704 91.823 251.186 89.655 C 245.502 81.54 242.727 77.443 241.71 75.666 C 241.133 74.66 240.495 73.722 240.29 73.582 C 240.086 73.441 239.321 72.483 238.59 71.452 C 237.859 70.42 236.969 69.431 236.612 69.254 C 235.488 68.694 158.25 68.689 156.755 69.248 M 233.498 77.059 C 234.426 77.93 237.868 82.716 240.16 86.321 C 240.709 87.185 242.957 90.534 245.155 93.763 C 247.353 96.993 250.174 101.178 251.425 103.064 C 252.675 104.95 254.073 106.977 254.532 107.568 C 256.381 109.953 256.568 111.057 256.452 118.947 L 256.344 126.388 L 255.216 127.23 L 254.087 128.072 L 196.457 128.176 L 138.826 128.28 L 137.43 126.977 L 136.035 125.674 L 136.137 118.589 C 136.245 111.166 136.576 109.659 138.603 107.356 C 138.96 106.951 139.703 105.85 140.255 104.908 C 140.807 103.967 141.978 102.164 142.857 100.902 C 143.736 99.639 144.905 97.932 145.455 97.107 C 146.004 96.282 147.712 93.763 149.251 91.509 C 150.789 89.255 152.677 86.471 153.447 85.323 C 157.673 79.012 159.293 76.917 160.343 76.407 C 160.973 76.101 171.814 75.994 196.871 76.048 L 232.503 76.124 L 233.498 77.059 M 168.391 104.593 C 166.726 105.738 166.31 116.305 167.875 117.72 C 169.191 118.911 194.366 118.898 195.237 117.706 C 196.047 116.598 196.047 106.38 195.237 105.271 C 194.642 104.457 169.512 103.822 168.391 104.593 M 238.924 135.597 C 241.963 136.403 242.358 137.351 242.358 143.843 C 242.358 150.268 242.148 150.728 238.902 151.424 C 236.417 151.957 156.372 151.998 154.086 151.467 C 151.243 150.808 150.868 150.066 150.714 144.798 C 150.509 137.795 151.071 136.128 153.856 135.473 C 156.167 134.93 236.851 135.047 238.924 135.597 M 226.052 159.605 C 227.158 160.556 227.175 160.636 227.304 165.772 C 227.468 172.29 227.33 172.608 222.311 177.269 C 220.208 179.222 217.563 181.718 216.432 182.817 C 203.954 194.94 203.314 195.35 196.715 195.442 C 189.645 195.541 189.374 195.365 174.426 181.012 C 172.667 179.324 170.359 177.158 169.295 176.2 C 164.733 172.09 163.613 162.039 167.394 159.154 C 167.881 158.782 174.75 158.664 196.481 158.654 L 224.93 158.641 L 226.052 159.605 M 143.545 230.392 C 142.328 231.245 142.273 234.58 143.457 235.764 C 144.228 236.536 144.789 236.563 159.84 236.563 C 177.802 236.563 177.023 236.725 177.023 232.99 C 177.023 229.66 177.613 229.77 159.84 229.77 C 146.543 229.77 144.312 229.855 143.545 230.392" stroke-linecap="round" />
</g>
</svg>
